<svg xmlns="http://www.w3.org/2000/svg" width="256" height="256" viewBox="0 0 100 100"><rect width="100" height="100" rx="0" fill="#010102"></rect><path fill="#fff" d="M27.24 82.21L14.71 82.21L20.94 17.79L42.76 17.79L48.91 82.21L36.69 82.21L35.79 71.79L27.99 71.79L27.24 82.21ZM31.36 28.74L28.96 61.51L34.81 61.51L31.96 28.74L31.36 28.74ZM63.61 82.21L51.09 82.21L57.31 17.79L79.14 17.79L85.29 82.21L73.06 82.21L72.16 71.79L64.36 71.79L63.61 82.21ZM67.74 28.74L65.34 61.51L71.19 61.51L68.34 28.74L67.74 28.74Z"></path></svg>